<?xml version="1.0" encoding="UTF-8"?>
<svg id="Layer_1" data-name="Layer 1" xmlns="http://www.w3.org/2000/svg" viewBox="0 0 617.53 236.59">
  <defs>
    <style>
      .cls-1 {
        fill: #231f20;
        font-family: Copperplate, Copperplate;
        font-size: 70px;
      }

      .cls-2 {
        stroke-width: 5px;
      }

      .cls-2, .cls-3 {
        fill: #be1e2d;
      }

      .cls-2, .cls-3, .cls-4 {
        stroke: #be1e2d;
        stroke-miterlimit: 10;
      }

      .cls-4 {
        fill: none;
      }

      .cls-5 {
        fill: #fff;
      }
    </style>
  </defs>
  <path class="cls-2" d="M2.5,8.55v36.66h61.69v111.8h1.72l58.77-35.05V45.21h61.7V8.55H2.5ZM88.04,157.01h36.64v-21.85l-36.64,21.85Z"/>
  <path class="cls-2" d="M577.2,14.57c-15.71-8.04-37.29-12.07-64.74-12.07-35.08,0-62.2,7.02-81.38,21.05-11.7,8.56-19.84,19.38-24.39,32.45h69.5c.85-1.32,1.8-2.53,2.83-3.64,8.12-8.89,19.82-13.34,35.08-13.34,6.73,0,12.83,1.01,18.28,3.01,5.45,2.02,10.06,4.89,13.83,8.62,2.27,2.23,4.45,5.75,6.53,10.56l59.46-9.58c-7.63-16.67-19.3-29.02-35-37.06ZM469.97,77.97c-.11,1.76-.17,3.58-.17,5.48,0,17.51,3.67,29.51,11,36s17.64,9.73,30.92,9.73,22.61-2.62,29.21-7.86c6.59-5.24,11.37-12.85,14.34-22.84l59.01,12.93c-3.97,11.99-10.21,22.01-18.73,30.06-8.52,8.04-19.1,14.1-31.73,18.2-12.64,4.09-28.72,6.14-48.24,6.14-23.68,0-43.03-2.5-58.04-7.48-15.01-4.99-27.97-13.76-38.87-26.32-5.9-6.8-10.2-14.64-12.9-23.5-.26-.82-.5-1.65-.72-2.49-1.08-4.05-1.84-8.31-2.28-12.77-.3-3.06-.45-6.22-.45-9.47,0-1.57.04-3.11.11-4.64"/>
  <path class="cls-3" d="M327.22,6.55l-16.57,51.36h41.34l3.36-10.41,1.48-4.57v14.98h48.94V6.55h-78.55ZM303.79,79.14l-6.66,20.66-30.3-93.25h-78.6v153.26h48.95V42.93l37.64,116.88h44.3l24.83-76.95.02-.05,1.18-3.67h-41.36ZM405.77,77.88v81.93h-48.94v-80.67h46.38c.02-.4.05-.78.08-1.17"/>
  <polygon class="cls-2" points="352.11 47.5 358.57 47.5 358.57 87.17 342.96 87.17 352.11 47.5"/>
  <text class="cls-1" transform="translate(36.78 217.48) scale(.79 1)"><tspan x="0" y="0">Trim Medical Centre</tspan></text>
  <line class="cls-4" x1="408.05" y1="77.97" x2="405.77" y2="77.97"/>
  <polygon class="cls-5" points="405.77 77.97 408.05 77.97 469.97 77.97 405.77 77.88 403.29 77.97 405.77 77.97"/>
</svg>